<svg version="1.1" id="Layer_1" xmlns="http://www.w3.org/2000/svg" xmlns:xlink="http://www.w3.org/1999/xlink" x="0px" y="0px"
	 width="100%" viewBox="0 0 400 58" enable-background="new 0 0 400 58" xml:space="preserve">
<path fill="#AC3005" opacity="1.000000" stroke="none" 
	d="
M8.000000,59.000000 
	C5.668820,59.000000 3.337640,59.000000 1.004844,59.000000 
	C1.003230,39.686661 1.003230,20.373320 1.003230,1.035232 
	C134.333328,1.035232 267.666656,1.035232 400.991516,1.035232 
	C400.991516,20.380312 400.991516,39.690159 400.987305,59.000000 
	C398.651855,59.000000 396.320679,59.000000 393.492584,58.762703 
	C392.995697,58.525406 392.991425,58.050808 393.314362,58.026295 
	C394.436951,57.730228 395.236603,57.458679 396.275269,57.086143 
	C396.406891,56.628719 396.299530,56.272282 396.149872,55.705280 
	C396.107605,55.494717 396.012207,55.075920 396.049805,54.788780 
	C396.057678,54.310890 396.027954,54.120132 395.646729,53.714996 
	C393.653107,53.333275 392.010986,53.019699 390.368774,53.019409 
	C263.507141,52.997169 136.645508,52.995213 9.783889,53.040699 
	C7.855589,53.041393 5.927509,53.652615 3.961003,54.239700 
	C3.930969,54.676010 3.939259,54.851540 3.869183,55.271263 
	C3.851145,55.675903 3.911473,55.836349 3.882018,56.250465 
	C3.851950,56.673302 3.911666,56.842461 4.249856,57.229248 
	C5.687600,57.643116 6.846871,57.839355 8.004507,58.276699 
	C8.002872,58.517799 8.000000,59.000000 8.000000,59.000000 
M398.120514,11.657288 
	C398.120514,11.657288 398.180481,11.246487 398.740356,10.749393 
	C396.700195,10.164209 394.660370,9.068156 392.619812,9.066838 
	C265.341614,8.984626 138.063385,8.991427 10.785139,8.995650 
	C9.455868,8.995694 8.094498,8.920311 6.815947,9.195410 
	C6.406785,9.283445 6.216859,10.390398 5.902551,11.552783 
	C5.934105,11.723958 5.965659,11.895133 6.699337,12.499402 
	C8.341139,12.666879 9.982915,12.980695 11.624746,12.980985 
	C138.485428,13.003370 265.346130,13.005314 392.206818,12.961487 
	C394.139069,12.960819 396.071167,12.370626 398.120514,11.657288 
M175.459778,33.682312 
	C174.678375,24.573275 169.567856,21.862707 158.224121,24.874722 
	C158.224121,30.693619 158.077835,36.636425 158.350906,42.559902 
	C158.403793,43.707180 159.980087,45.606224 161.047180,45.753174 
	C168.757233,46.814907 176.313553,43.948174 175.459778,33.682312 
M93.383034,37.114780 
	C95.020500,38.668022 96.991020,39.999470 98.210655,41.830952 
	C99.716255,44.091831 100.951675,45.925220 104.263702,44.110664 
	C102.960732,41.529079 101.719254,39.069336 100.464478,36.583233 
	C103.589661,34.054573 105.367798,30.920109 103.030472,27.413479 
	C99.174507,21.628464 93.199173,24.751278 87.927597,23.956791 
	C87.927597,31.403017 87.927597,38.267174 87.927597,45.131332 
	C88.487503,45.355877 89.047401,45.580425 89.607307,45.804970 
	C90.438362,44.268883 91.437050,42.795677 92.044678,41.175781 
	C92.489357,39.990314 92.420097,38.612072 93.383034,37.114780 
M133.532288,34.519711 
	C133.550186,37.349400 133.385712,40.198444 133.682831,42.998505 
	C133.789795,44.006538 135.006683,44.896801 135.717041,45.840813 
	C136.445786,44.874390 137.707916,43.957405 137.802933,42.932240 
	C138.083771,39.902344 137.903290,36.829689 137.903290,33.773766 
	C138.212250,33.714260 138.521210,33.654755 138.830170,33.595253 
	C141.518921,37.661659 144.207657,41.728062 147.226074,46.293068 
	C148.301880,45.016396 149.885895,44.009274 149.934357,42.933014 
	C150.188675,37.284588 150.130905,31.616264 149.953445,25.962013 
	C149.932434,25.292675 148.516998,24.667103 147.747955,24.021238 
	C147.103622,24.789082 145.967041,25.518530 145.903610,26.331684 
	C145.677139,29.235329 145.814987,32.167389 145.814987,35.292969 
	C140.522690,32.696323 141.365509,24.070168 133.531311,24.096512 
	C133.531311,27.622660 133.531311,30.603212 133.532288,34.519711 
M265.850250,26.812405 
	C262.668457,23.118160 258.610718,22.881374 254.536743,24.554066 
	C249.262299,26.719669 249.911224,31.633270 249.996185,36.089314 
	C250.111069,42.114967 252.711563,44.916126 258.182770,45.100258 
	C264.063934,45.298183 267.235931,42.671806 267.492859,36.653324 
	C267.622955,33.605705 266.730103,30.514423 265.850250,26.812405 
M300.699646,33.538059 
	C303.221436,36.553764 309.210510,35.224087 310.484497,41.980438 
	C306.009827,40.470531 302.651367,39.337273 298.889252,38.067810 
	C299.977203,43.618176 302.475342,45.348454 307.932800,45.095314 
	C311.720337,44.919636 315.101624,43.720856 315.683472,39.546799 
	C316.369843,34.622856 312.341949,33.787125 308.793365,32.633804 
	C306.985779,32.046314 305.321136,31.018988 303.591858,30.190477 
	C303.813904,29.522442 304.035980,28.854406 304.258026,28.186371 
	C307.744843,28.803438 311.231659,29.420504 314.958618,30.080070 
	C313.271179,24.490314 308.716583,22.354050 303.544678,24.214926 
	C299.689148,25.602169 298.610016,28.455797 300.699646,33.538059 
M121.235901,41.038166 
	C119.609299,41.038166 117.982689,41.038166 116.159637,41.038166 
	C116.159637,39.258659 116.159637,37.886581 116.159637,36.150280 
	C117.558037,36.150280 118.686378,36.152866 119.814705,36.149567 
	C120.975998,36.146172 122.184769,36.331825 123.282433,36.064236 
	C124.057747,35.875229 124.682465,35.068485 125.374413,34.537521 
	C124.686028,33.809105 124.105965,32.656338 123.285126,32.446800 
	C121.879570,32.088001 120.241440,32.607708 118.855637,32.214058 
	C117.692337,31.883610 116.749428,30.777319 114.952499,29.459963 
	C125.599533,28.155844 125.599533,28.155844 125.485405,24.238735 
	C120.921852,24.238735 116.355103,24.238735 111.158394,24.238735 
	C111.158394,27.932890 111.156494,31.368244 111.158745,34.803593 
	C111.166130,46.092922 111.172180,46.141144 122.432564,44.863464 
	C123.749832,44.714001 124.966225,43.675465 126.229378,43.049091 
	C124.852402,42.378819 123.475418,41.708546 121.235901,41.038166 
M185.834686,45.890251 
	C189.087326,45.557270 192.358551,45.338467 195.579956,44.813705 
	C196.420334,44.676807 197.105515,43.586964 197.861984,42.934792 
	C197.097046,42.308796 196.373764,41.215630 195.559479,41.143032 
	C192.954468,40.910774 190.315735,41.056801 187.830826,41.056801 
	C186.781494,37.497982 187.467407,35.700241 191.131683,36.106724 
	C192.280426,36.234154 193.522003,36.350426 194.598633,36.042999 
	C195.469315,35.794376 196.156174,34.902000 196.924591,34.295197 
	C196.156937,33.645760 195.471970,32.624165 194.602936,32.431107 
	C193.176361,32.114185 191.574661,32.575459 190.153717,32.246620 
	C189.162048,32.017124 188.348953,31.015985 187.456085,30.359522 
	C188.326218,29.864014 189.142090,29.150452 190.077606,28.917753 
	C192.112656,28.411551 194.255386,28.304892 196.253036,27.700735 
	C196.900497,27.504917 197.702866,26.175655 197.576340,25.534046 
	C197.452454,24.905848 196.250290,24.081379 195.496109,24.054541 
	C191.424164,23.909636 187.344345,23.985909 182.943008,23.985909 
	C182.943008,30.560688 182.828583,36.361286 183.034042,42.150524 
	C183.078171,43.393497 184.279236,44.595406 185.834686,45.890251 
M205.115143,39.855167 
	C203.285278,44.873249 203.881485,45.962536 208.905090,45.852909 
	C212.170349,45.781654 215.439941,45.314362 218.672348,44.802132 
	C219.374374,44.690884 219.925873,43.629654 220.546692,43.005970 
	C219.818680,42.327015 219.145035,41.148941 218.352493,41.062630 
	C215.969391,40.803108 213.539932,40.969101 210.723907,40.969101 
	C213.283447,34.696548 219.757248,31.330809 220.175827,24.335402 
	C214.614899,24.335402 209.548798,24.335402 204.492859,24.335402 
	C203.388611,31.688484 210.199341,27.239912 212.477386,30.218864 
	C210.173904,33.247272 207.883926,36.257938 205.115143,39.855167 
M287.086090,38.030567 
	C285.511688,39.039928 284.001160,40.626400 282.335388,40.810890 
	C281.523926,40.900753 279.773499,38.458420 279.584259,37.013538 
	C279.157135,33.752300 279.705170,30.364847 279.295624,27.099081 
	C279.134644,25.815426 277.475586,24.719641 276.498718,23.538300 
	C276.053589,23.855858 275.608459,24.173416 275.163330,24.490973 
	C275.074951,25.623915 274.912354,26.756830 274.911957,27.889801 
	C274.910736,31.370905 274.776276,34.867889 275.057251,38.329178 
	C275.420013,42.797997 278.329956,45.054146 283.235992,45.098717 
	C288.104279,45.142937 291.395599,42.867794 291.774353,38.625866 
	C292.127045,34.675896 292.035004,30.668375 291.841095,26.700735 
	C291.795898,25.776764 290.544952,24.911726 289.848785,24.019575 
	C288.975800,24.905283 287.436249,25.730537 287.349457,26.687557 
	C287.036102,30.141979 287.211823,33.640759 287.086090,38.030567 
M226.387054,26.238863 
	C228.301178,31.892851 230.116547,37.583908 232.213196,43.169373 
	C232.629700,44.278938 234.034210,45.515911 235.150528,45.704823 
	C236.023331,45.852524 237.729019,44.680305 238.079300,43.730995 
	C240.403717,37.431564 242.462372,31.034063 244.604843,24.676359 
	C240.136932,22.820543 239.649567,25.661514 238.824646,28.240396 
	C237.985413,30.863998 236.959259,33.427807 235.930740,36.248825 
	C235.078888,35.500866 234.363205,35.167866 234.147797,34.633270 
	C233.098663,32.029804 232.151459,29.383509 231.229111,26.731180 
	C230.179459,23.712801 228.759720,22.401066 226.387054,26.238863 
z"/>
<path fill="#AD2D00" opacity="1.000000" stroke="none" 
	d="
M392.991425,58.050808 
	C392.991425,58.050808 392.995697,58.525406 392.997864,58.762703 
	C264.977356,59.000000 136.954727,59.000000 8.466042,59.000000 
	C8.000000,59.000000 8.002872,58.517799 8.472401,58.265038 
	C16.433136,58.007843 23.924345,57.998684 31.415552,57.999695 
	C151.940842,58.015972 272.466125,58.033535 392.991425,58.050808 
z"/>
<path fill="#AF6864" opacity="1.000000" stroke="none" 
	d="
M395.998199,53.929379 
	C396.027954,54.120132 396.057678,54.310890 395.632141,54.764282 
	C394.620056,55.395977 394.063293,55.765030 393.470520,56.411278 
	C393.570862,56.815437 393.707275,56.942406 393.391479,57.156136 
	C372.837616,57.266884 352.735413,57.383751 332.634399,57.278553 
	C321.330841,57.219398 310.028381,56.548260 298.726837,56.585472 
	C277.096771,56.656700 255.468292,57.110069 233.838150,57.265537 
	C216.560974,57.389717 199.282303,57.312706 182.004303,57.315300 
	C154.025284,57.319500 126.046227,57.340492 98.067314,57.285110 
	C94.429626,57.277908 90.791626,56.651016 87.155708,56.670612 
	C75.527023,56.733288 63.899704,57.024143 52.270985,57.113445 
	C42.487576,57.188576 32.701500,57.199657 22.919510,57.049713 
	C18.433950,56.980961 13.955356,56.457905 9.334414,55.708740 
	C8.600758,55.175533 8.006291,55.074451 7.376466,55.427475 
	C6.755777,55.580788 6.170447,55.279991 5.175913,54.997589 
	C4.493654,55.019676 4.220601,55.023369 3.947548,55.027065 
	C3.939259,54.851540 3.930969,54.676010 4.429525,54.251392 
	C47.388950,54.002056 89.841530,54.009197 132.294113,54.000038 
	C220.195480,53.981079 308.096832,53.953445 395.998199,53.929379 
z"/>
<path fill="#F2F0F2" opacity="1.000000" stroke="none" 
	d="
M5.926626,11.031160 
	C6.216859,10.390398 6.406785,9.283445 6.815947,9.195410 
	C8.094498,8.920311 9.455868,8.995694 10.785139,8.995650 
	C138.063385,8.991427 265.341614,8.984626 392.619812,9.066838 
	C394.660370,9.068156 396.700195,10.164209 397.985535,10.919055 
	C394.565521,11.073579 391.900360,11.045314 389.235199,11.045184 
	C261.465668,11.038979 133.696152,11.035207 5.926626,11.031160 
z"/>
<path fill="#A83726" opacity="1.000000" stroke="none" 
	d="
M5.585118,54.979195 
	C6.170447,55.279991 6.755777,55.580788 7.194784,56.069283 
	C7.856842,56.218273 8.665222,56.179569 9.473602,56.140862 
	C13.955356,56.457905 18.433950,56.980961 22.919510,57.049713 
	C32.701500,57.199657 42.487576,57.188576 52.270985,57.113445 
	C63.899704,57.024143 75.527023,56.733288 87.155708,56.670612 
	C90.791626,56.651016 94.429626,57.277908 98.067314,57.285110 
	C126.046227,57.340492 154.025284,57.319500 182.004303,57.315300 
	C199.282303,57.312706 216.560974,57.389717 233.838150,57.265537 
	C255.468292,57.110069 277.096771,56.656700 298.726837,56.585472 
	C310.028381,56.548260 321.330841,57.219398 332.634399,57.278553 
	C352.735413,57.383751 372.837616,57.266884 393.759705,57.129921 
	C395.065521,57.073669 395.550873,57.130394 396.036255,57.187119 
	C395.236603,57.458679 394.436951,57.730228 393.314362,58.026295 
	C272.466125,58.033535 151.940842,58.015972 31.415552,57.999695 
	C23.924345,57.998684 16.433136,58.007843 8.474035,58.023933 
	C6.846871,57.839355 5.687600,57.643116 4.490339,57.215603 
	C4.782820,57.022705 5.093189,56.960621 5.866787,56.391354 
	C6.095116,55.649487 5.840117,55.314342 5.585118,54.979195 
z"/>
<path fill="#AD726D" opacity="1.000000" stroke="none" 
	d="
M5.914588,11.291971 
	C133.696152,11.035207 261.465668,11.038979 389.235199,11.045184 
	C391.900360,11.045314 394.565521,11.073579 397.705566,11.167603 
	C398.180481,11.246487 398.120514,11.657288 397.593384,11.837021 
	C363.603058,12.012547 330.139832,12.000062 296.676605,12.005692 
	C199.783478,12.021996 102.890343,12.045582 5.997214,12.066309 
	C5.965659,11.895133 5.934105,11.723958 5.914588,11.291971 
z"/>
<path fill="#A91901" opacity="1.000000" stroke="none" 
	d="
M6.348275,12.282856 
	C102.890343,12.045582 199.783478,12.021996 296.676605,12.005692 
	C330.139832,12.000062 363.603058,12.012547 397.534790,12.036156 
	C396.071167,12.370626 394.139069,12.960819 392.206818,12.961487 
	C265.346130,13.005314 138.485428,13.003370 11.624746,12.980985 
	C9.982915,12.980695 8.341139,12.666879 6.348275,12.282856 
z"/>
<path fill="#AB1E02" opacity="1.000000" stroke="none" 
	d="
M395.646729,53.714996 
	C308.096832,53.953445 220.195480,53.981079 132.294113,54.000038 
	C89.841530,54.009197 47.388950,54.002056 4.467848,53.990608 
	C5.927509,53.652615 7.855589,53.041393 9.783889,53.040699 
	C136.645508,52.995213 263.507141,52.997169 390.368774,53.019409 
	C392.010986,53.019699 393.653107,53.333275 395.646729,53.714996 
z"/>
<path fill="#CADCE7" opacity="1.000000" stroke="none" 
	d="
M175.463867,34.087669 
	C176.313553,43.948174 168.757233,46.814907 161.047180,45.753174 
	C159.980087,45.606224 158.403793,43.707180 158.350906,42.559902 
	C158.077835,36.636425 158.224121,30.693619 158.224121,24.874722 
	C169.567856,21.862707 174.678375,24.573275 175.463867,34.087669 
M162.903976,34.482174 
	C163.566269,36.646114 164.228577,38.810059 164.890869,40.973999 
	C166.570465,40.301193 169.576736,39.801369 169.691071,38.924469 
	C170.100906,35.781342 169.931824,32.395050 169.057373,29.367683 
	C168.833145,28.591389 165.213821,28.795767 162.904404,28.519749 
	C162.904404,30.951675 162.904404,32.262268 162.903976,34.482174 
z"/>
<path fill="#CCDEE9" opacity="1.000000" stroke="none" 
	d="
M92.981476,37.217266 
	C92.420097,38.612072 92.489357,39.990314 92.044678,41.175781 
	C91.437050,42.795677 90.438362,44.268883 89.607307,45.804970 
	C89.047401,45.580425 88.487503,45.355877 87.927597,45.131332 
	C87.927597,38.267174 87.927597,31.403017 87.927597,23.956791 
	C93.199173,24.751278 99.174507,21.628464 103.030472,27.413479 
	C105.367798,30.920109 103.589661,34.054573 100.464478,36.583233 
	C101.719254,39.069336 102.960732,41.529079 104.263702,44.110664 
	C100.951675,45.925220 99.716255,44.091831 98.210655,41.830952 
	C96.991020,39.999470 95.020500,38.668022 92.981476,37.217266 
M97.379036,28.929485 
	C95.673882,28.788216 93.968719,28.646944 92.054100,28.488319 
	C92.134544,30.115810 92.204300,31.526951 92.271042,32.877209 
	C98.770409,33.627228 99.273262,33.291702 97.379036,28.929485 
z"/>
<path fill="#CCE2ED" opacity="1.000000" stroke="none" 
	d="
M133.531799,34.051735 
	C133.531311,30.603212 133.531311,27.622660 133.531311,24.096512 
	C141.365509,24.070168 140.522690,32.696323 145.814987,35.292969 
	C145.814987,32.167389 145.677139,29.235329 145.903610,26.331684 
	C145.967041,25.518530 147.103622,24.789082 147.747955,24.021240 
	C148.516998,24.667103 149.932434,25.292675 149.953445,25.962013 
	C150.130905,31.616264 150.188675,37.284588 149.934357,42.933014 
	C149.885895,44.009274 148.301880,45.016396 147.226074,46.293068 
	C144.207657,41.728062 141.518921,37.661659 138.830170,33.595253 
	C138.521210,33.654755 138.212250,33.714260 137.903290,33.773766 
	C137.903290,36.829689 138.083771,39.902344 137.802933,42.932240 
	C137.707916,43.957405 136.445786,44.874390 135.717041,45.840813 
	C135.006683,44.896801 133.789795,44.006538 133.682831,42.998505 
	C133.385712,40.198444 133.550186,37.349400 133.531799,34.051735 
z"/>
<path fill="#CBDCE7" opacity="1.000000" stroke="none" 
	d="
M266.075012,27.127644 
	C266.730103,30.514423 267.622955,33.605705 267.492859,36.653324 
	C267.235931,42.671806 264.063934,45.298183 258.182770,45.100258 
	C252.711563,44.916126 250.111069,42.114967 249.996185,36.089314 
	C249.911224,31.633270 249.262299,26.719669 254.536743,24.554066 
	C258.610718,22.881374 262.668457,23.118160 266.075012,27.127644 
M254.808075,37.150101 
	C254.890228,40.017769 256.691132,42.033733 259.117004,40.912868 
	C260.898315,40.089806 262.367340,37.264751 262.751007,35.113499 
	C263.139709,32.934185 264.100800,29.614544 260.122345,28.784218 
	C255.547546,27.829428 254.708176,28.962271 254.808075,37.150101 
z"/>
<path fill="#CADBE4" opacity="1.000000" stroke="none" 
	d="
M300.462402,33.265587 
	C298.610016,28.455797 299.689148,25.602169 303.544678,24.214926 
	C308.716583,22.354050 313.271179,24.490314 314.958618,30.080070 
	C311.231659,29.420504 307.744843,28.803438 304.258026,28.186371 
	C304.035980,28.854406 303.813904,29.522442 303.591858,30.190477 
	C305.321136,31.018988 306.985779,32.046314 308.793365,32.633804 
	C312.341949,33.787125 316.369843,34.622856 315.683472,39.546799 
	C315.101624,43.720856 311.720337,44.919636 307.932800,45.095314 
	C302.475342,45.348454 299.977203,43.618176 298.889252,38.067810 
	C302.651367,39.337273 306.009827,40.470531 310.484497,41.980438 
	C309.210510,35.224087 303.221436,36.553764 300.462402,33.265587 
z"/>
<path fill="#C9D6E0" opacity="1.000000" stroke="none" 
	d="
M121.667168,41.038216 
	C123.475418,41.708546 124.852402,42.378819 126.229378,43.049095 
	C124.966225,43.675465 123.749832,44.714001 122.432564,44.863464 
	C111.172180,46.141144 111.166130,46.092922 111.158745,34.803593 
	C111.156494,31.368244 111.158394,27.932890 111.158394,24.238735 
	C116.355103,24.238735 120.921852,24.238735 125.485405,24.238735 
	C125.599533,28.155844 125.599533,28.155844 114.952499,29.459963 
	C116.749428,30.777319 117.692337,31.883610 118.855637,32.214058 
	C120.241440,32.607708 121.879570,32.088001 123.285126,32.446800 
	C124.105965,32.656338 124.686028,33.809105 125.374413,34.537521 
	C124.682465,35.068485 124.057747,35.875229 123.282433,36.064236 
	C122.184769,36.331825 120.975998,36.146172 119.814705,36.149567 
	C118.686378,36.152866 117.558037,36.150280 116.159637,36.150280 
	C116.159637,37.886581 116.159637,39.258659 116.159637,41.038166 
	C117.982689,41.038166 119.609299,41.038166 121.667168,41.038216 
z"/>
<path fill="#CADAE5" opacity="1.000000" stroke="none" 
	d="
M185.391022,45.853241 
	C184.279236,44.595406 183.078171,43.393497 183.034042,42.150524 
	C182.828583,36.361286 182.943008,30.560688 182.943008,23.985909 
	C187.344345,23.985909 191.424164,23.909636 195.496109,24.054541 
	C196.250290,24.081379 197.452454,24.905848 197.576340,25.534046 
	C197.702866,26.175655 196.900497,27.504917 196.253036,27.700735 
	C194.255386,28.304892 192.112656,28.411551 190.077606,28.917753 
	C189.142090,29.150452 188.326218,29.864014 187.456085,30.359520 
	C188.348953,31.015985 189.162048,32.017124 190.153717,32.246620 
	C191.574661,32.575459 193.176361,32.114185 194.602936,32.431107 
	C195.471970,32.624165 196.156937,33.645760 196.924591,34.295193 
	C196.156174,34.902000 195.469315,35.794376 194.598633,36.042999 
	C193.522003,36.350426 192.280426,36.234154 191.131683,36.106724 
	C187.467407,35.700241 186.781494,37.497982 187.830826,41.056801 
	C190.315735,41.056801 192.954468,40.910774 195.559479,41.143032 
	C196.373764,41.215630 197.097046,42.308796 197.861984,42.934792 
	C197.105515,43.586964 196.420334,44.676807 195.579956,44.813705 
	C192.358551,45.338467 189.087326,45.557270 185.391022,45.853241 
z"/>
<path fill="#CADBE6" opacity="1.000000" stroke="none" 
	d="
M205.354538,39.561890 
	C207.883926,36.257938 210.173904,33.247272 212.477386,30.218864 
	C210.199341,27.239912 203.388611,31.688484 204.492859,24.335402 
	C209.548798,24.335402 214.614899,24.335402 220.175827,24.335402 
	C219.757248,31.330809 213.283447,34.696548 210.723907,40.969101 
	C213.539932,40.969101 215.969391,40.803108 218.352493,41.062630 
	C219.145035,41.148941 219.818680,42.327015 220.546692,43.005966 
	C219.925873,43.629654 219.374374,44.690884 218.672348,44.802132 
	C215.439941,45.314362 212.170349,45.781654 208.905090,45.852909 
	C203.881485,45.962536 203.285278,44.873249 205.354538,39.561890 
z"/>
<path fill="#CCDEEA" opacity="1.000000" stroke="none" 
	d="
M287.144470,37.576675 
	C287.211823,33.640759 287.036102,30.141979 287.349457,26.687557 
	C287.436249,25.730537 288.975800,24.905283 289.848785,24.019573 
	C290.544952,24.911726 291.795898,25.776764 291.841095,26.700735 
	C292.035004,30.668375 292.127045,34.675896 291.774353,38.625866 
	C291.395599,42.867794 288.104279,45.142937 283.235992,45.098717 
	C278.329956,45.054146 275.420013,42.797997 275.057251,38.329178 
	C274.776276,34.867889 274.910736,31.370905 274.911957,27.889801 
	C274.912354,26.756830 275.074951,25.623915 275.163330,24.490973 
	C275.608459,24.173416 276.053589,23.855858 276.498718,23.538300 
	C277.475586,24.719641 279.134644,25.815426 279.295624,27.099081 
	C279.705170,30.364847 279.157135,33.752300 279.584259,37.013538 
	C279.773499,38.458420 281.523926,40.900753 282.335388,40.810890 
	C284.001160,40.626400 285.511688,39.039928 287.144470,37.576675 
z"/>
<path fill="#CBDDE8" opacity="1.000000" stroke="none" 
	d="
M226.299576,25.857092 
	C228.759720,22.401066 230.179459,23.712801 231.229111,26.731180 
	C232.151459,29.383509 233.098663,32.029804 234.147797,34.633270 
	C234.363205,35.167866 235.078888,35.500866 235.930740,36.248825 
	C236.959259,33.427807 237.985413,30.863998 238.824646,28.240396 
	C239.649567,25.661514 240.136932,22.820543 244.604843,24.676359 
	C242.462372,31.034063 240.403717,37.431564 238.079300,43.730995 
	C237.729019,44.680305 236.023331,45.852524 235.150528,45.704823 
	C234.034210,45.515911 232.629700,44.278938 232.213196,43.169373 
	C230.116547,37.583908 228.301178,31.892851 226.299576,25.857092 
z"/>
<path fill="#F0EAEA" opacity="1.000000" stroke="none" 
	d="
M396.275269,57.086136 
	C395.550873,57.130394 395.065521,57.073669 394.211914,57.043159 
	C393.707275,56.942406 393.570862,56.815437 393.921539,56.387070 
	C395.003113,56.029057 395.597626,55.972450 396.192139,55.915848 
	C396.299530,56.272282 396.406891,56.628719 396.275269,57.086136 
z"/>
<path fill="#FAFBFF" opacity="1.000000" stroke="none" 
	d="
M396.149872,55.705284 
	C395.597626,55.972450 395.003113,56.029057 393.957581,56.109871 
	C394.063293,55.765030 394.620056,55.395977 395.594513,55.051422 
	C396.012207,55.075920 396.107605,55.494717 396.149872,55.705284 
z"/>
<path fill="#FAFBFF" opacity="1.000000" stroke="none" 
	d="
M5.175913,54.997589 
	C5.840117,55.314342 6.095116,55.649487 5.524341,56.172394 
	C4.456312,56.239040 4.214056,56.117920 3.971801,55.996796 
	C3.911473,55.836349 3.851145,55.675903 3.869183,55.271263 
	C4.220601,55.023369 4.493654,55.019676 5.175913,54.997589 
z"/>
<path fill="#F0EAEA" opacity="1.000000" stroke="none" 
	d="
M3.882018,56.250465 
	C4.214056,56.117920 4.456312,56.239040 5.041013,56.579117 
	C5.093189,56.960621 4.782820,57.022705 4.211866,56.997978 
	C3.911666,56.842461 3.851950,56.673302 3.882018,56.250465 
z"/>
<path fill="#FAFBFF" opacity="1.000000" stroke="none" 
	d="
M9.334414,55.708740 
	C8.665222,56.179569 7.856842,56.218273 7.230144,55.615173 
	C8.006291,55.074451 8.600758,55.175533 9.334414,55.708740 
z"/>
<path fill="#AE330C" opacity="1.000000" stroke="none" 
	d="
M162.904190,34.027519 
	C162.904404,32.262268 162.904404,30.951675 162.904404,28.519749 
	C165.213821,28.795767 168.833145,28.591389 169.057373,29.367683 
	C169.931824,32.395050 170.100906,35.781342 169.691071,38.924469 
	C169.576736,39.801369 166.570465,40.301193 164.890869,40.973999 
	C164.228577,38.810059 163.566269,36.646114 162.904190,34.027519 
z"/>
<path fill="#AA2710" opacity="1.000000" stroke="none" 
	d="
M97.783836,29.067673 
	C99.273262,33.291702 98.770409,33.627228 92.271042,32.877209 
	C92.204300,31.526951 92.134544,30.115810 92.054100,28.488319 
	C93.968719,28.646944 95.673882,28.788216 97.783836,29.067673 
z"/>
<path fill="#AD320D" opacity="1.000000" stroke="none" 
	d="
M254.786591,36.696777 
	C254.708176,28.962271 255.547546,27.829428 260.122345,28.784218 
	C264.100800,29.614544 263.139709,32.934185 262.751007,35.113499 
	C262.367340,37.264751 260.898315,40.089806 259.117004,40.912868 
	C256.691132,42.033733 254.890228,40.017769 254.786591,36.696777 
z"/>
</svg>